<svg width="32" height="32" viewBox="0 0 32 32" fill="none" xmlns="http://www.w3.org/2000/svg">
<circle cx="16" cy="16" r="16" fill="white"/>
<path d="M8.90157 17.1458C8.96295 17.1566 9.02506 17.1616 9.08721 17.1608L19.6694 17.1608L19.4387 17.2776C19.2131 17.3938 19.0079 17.5519 18.8323 17.7448L15.8648 20.9743C15.4739 21.3804 15.4083 22.0335 15.7092 22.5219C16.0593 23.0424 16.7309 23.1554 17.2091 22.7743C17.2478 22.7435 17.2845 22.7099 17.319 22.6738L22.6852 16.8337C23.1046 16.3778 23.105 15.6383 22.6861 15.1819L17.319 9.34095C16.8993 8.88546 16.2198 8.88648 15.8012 9.34324C15.7683 9.3792 15.7375 9.41745 15.7092 9.45775C15.4083 9.94616 15.4739 10.5993 15.8648 11.0054L18.8269 14.2407C18.9844 14.4123 19.1654 14.5561 19.3635 14.6671L19.6855 14.8248L9.14627 14.8248C8.59802 14.8026 8.117 15.2194 8.014 15.8059C7.91912 16.4426 8.31649 17.0425 8.90157 17.1458Z" fill="url(#paint0_linear_525_159)"/>
<defs>
<linearGradient id="paint0_linear_525_159" x1="23" y1="16" x2="8" y2="16" gradientUnits="userSpaceOnUse">
<stop stop-color="#009BFB"/>
<stop offset="1" stop-color="#1D3FA0"/>
</linearGradient>
</defs>
</svg>
