<svg width="10" height="8" viewBox="0 0 10 8" fill="none" xmlns="http://www.w3.org/2000/svg">
<path d="M1.28844 -3.59963e-07L8.71544 -3.53188e-08C8.96077 -2.45949e-08 9.15677 0.0813338 9.30344 0.244C9.4501 0.406 9.52344 0.595334 9.52344 0.812C9.52344 0.88 9.5141 0.951 9.49544 1.025C9.47744 1.09833 9.44977 1.16867 9.41244 1.236L5.67944 7.079C5.59277 7.203 5.49344 7.29633 5.38144 7.359C5.2701 7.421 5.14377 7.452 5.00244 7.452C4.8611 7.452 4.73477 7.421 4.62344 7.359C4.5121 7.297 4.41277 7.20367 4.32544 7.079L0.592438 1.236C0.555771 1.16867 0.528104 1.09767 0.509438 1.023C0.490771 0.948333 0.481438 0.877333 0.481438 0.81C0.481438 0.592667 0.55477 0.403333 0.701437 0.241999C0.848104 0.0806659 1.04377 -3.70658e-07 1.28844 -3.59963e-07Z" fill="white"/>
</svg>
