<svg width="32" height="32" viewBox="0 0 32 32" fill="none" xmlns="http://www.w3.org/2000/svg">
<path d="M13.9974 10.666C13.4721 10.666 12.952 10.7695 12.4667 10.9705C11.9814 11.1715 11.5404 11.4662 11.169 11.8376C10.7975 12.209 10.5029 12.65 10.3019 13.1353C10.1009 13.6206 9.9974 14.1407 9.9974 14.666C9.9974 15.1913 10.1009 15.7114 10.3019 16.1967C10.5029 16.6821 10.7975 17.123 11.169 17.4944C11.5404 17.8659 11.9814 18.1605 12.4667 18.3615C12.952 18.5626 13.4721 18.666 13.9974 18.666C15.0583 18.666 16.0757 18.2446 16.8258 17.4944C17.576 16.7443 17.9974 15.7269 17.9974 14.666C17.9974 13.6051 17.576 12.5877 16.8258 11.8376C16.0757 11.0874 15.0583 10.666 13.9974 10.666ZM11.9974 14.666C11.9974 14.1356 12.2081 13.6269 12.5832 13.2518C12.9583 12.8767 13.467 12.666 13.9974 12.666C14.5278 12.666 15.0365 12.8767 15.4116 13.2518C15.7867 13.6269 15.9974 14.1356 15.9974 14.666C15.9974 15.1964 15.7867 15.7052 15.4116 16.0802C15.0365 16.4553 14.5278 16.666 13.9974 16.666C13.467 16.666 12.9583 16.4553 12.5832 16.0802C12.2081 15.7052 11.9974 15.1964 11.9974 14.666ZM2.66406 9.66602C2.66406 8.87037 2.98013 8.1073 3.54274 7.5447C4.10535 6.98209 4.86841 6.66602 5.66406 6.66602H22.3307C22.7247 6.66602 23.1148 6.74361 23.4788 6.89438C23.8428 7.04514 24.1735 7.26612 24.452 7.5447C24.7306 7.82327 24.9516 8.15399 25.1024 8.51797C25.2531 8.88194 25.3307 9.27205 25.3307 9.66602V19.666C25.3307 20.06 25.2531 20.4501 25.1024 20.8141C24.9516 21.178 24.7306 21.5088 24.452 21.7873C24.1735 22.0659 23.8428 22.2869 23.4788 22.4377C23.1148 22.5884 22.7247 22.666 22.3307 22.666H5.66406C4.86841 22.666 4.10535 22.3499 3.54274 21.7873C2.98013 21.2247 2.66406 20.4617 2.66406 19.666V9.66602ZM5.66406 8.66602C5.39885 8.66602 5.14449 8.77137 4.95696 8.95891C4.76942 9.14645 4.66406 9.4008 4.66406 9.66602V10.666H5.66406C5.92928 10.666 6.18363 10.5607 6.37117 10.3731C6.55871 10.1856 6.66406 9.93123 6.66406 9.66602V8.66602H5.66406ZM4.66406 16.666H5.66406C6.45971 16.666 7.22277 16.9821 7.78538 17.5447C8.34799 18.1073 8.66406 18.8704 8.66406 19.666V20.666H19.3307V19.666C19.3307 18.8704 19.6468 18.1073 20.2094 17.5447C20.772 16.9821 21.5351 16.666 22.3307 16.666H23.3307V12.666H22.3307C21.5351 12.666 20.772 12.3499 20.2094 11.7873C19.6468 11.2247 19.3307 10.4617 19.3307 9.66602V8.66602H8.66406V9.66602C8.66406 10.06 8.58647 10.4501 8.4357 10.8141C8.28494 11.178 8.06396 11.5088 7.78538 11.7873C7.50681 12.0659 7.17609 12.2869 6.81211 12.4377C6.44814 12.5884 6.05803 12.666 5.66406 12.666H4.66406V16.666ZM23.3307 10.666V9.66602C23.3307 9.4008 23.2254 9.14645 23.0378 8.95891C22.8503 8.77137 22.5959 8.66602 22.3307 8.66602H21.3307V9.66602C21.3307 10.218 21.7787 10.666 22.3307 10.666H23.3307ZM23.3307 18.666H22.3307C22.0655 18.666 21.8112 18.7714 21.6236 18.9589C21.4361 19.1464 21.3307 19.4008 21.3307 19.666V20.666H22.3307C22.5959 20.666 22.8503 20.5607 23.0378 20.3731C23.2254 20.1856 23.3307 19.9312 23.3307 19.666V18.666ZM4.66406 19.666C4.66406 20.218 5.11206 20.666 5.66406 20.666H6.66406V19.666C6.66406 19.4008 6.55871 19.1464 6.37117 18.9589C6.18363 18.7714 5.92928 18.666 5.66406 18.666H4.66406V19.666ZM5.8654 24.666C6.21657 25.2743 6.72172 25.7793 7.33003 26.1304C7.93834 26.4815 8.62837 26.6662 9.33073 26.666H22.9974C23.8291 26.666 24.6527 26.5022 25.4211 26.1839C26.1895 25.8656 26.8876 25.3991 27.4757 24.811C28.0638 24.2229 28.5304 23.5247 28.8486 22.7563C29.1669 21.988 29.3307 21.1644 29.3307 20.3327V13.3327C29.3309 12.6303 29.1462 11.9403 28.7951 11.332C28.4441 10.7237 27.939 10.2185 27.3307 9.86735V20.3327C27.3307 21.482 26.8742 22.5842 26.0615 23.3968C25.2489 24.2095 24.1467 24.666 22.9974 24.666H5.8654Z" fill="url(#paint0_linear_525_1250)"/>
<defs>
<linearGradient id="paint0_linear_525_1250" x1="2.66406" y1="16.666" x2="29.3307" y2="16.666" gradientUnits="userSpaceOnUse">
<stop stop-color="#009BFB"/>
<stop offset="1" stop-color="#1D3FA0"/>
</linearGradient>
</defs>
</svg>
