<svg width="32" height="32" viewBox="0 0 32 32" fill="none" xmlns="http://www.w3.org/2000/svg">
<path d="M22.001 28.3337H25.6677C26.3749 28.3337 27.0532 28.0527 27.5533 27.5526C28.0534 27.0525 28.3343 26.3743 28.3343 25.667V22.9444M3.66768 24.2777V25.667C3.66768 26.3743 3.94863 27.0525 4.44873 27.5526C4.94882 28.0527 5.6271 28.3337 6.33434 28.3337H11.4597M11.4597 3.66703H6.33434C5.6271 3.66703 4.94882 3.94798 4.44873 4.44808C3.94863 4.94818 3.66768 5.62645 3.66768 6.3337V8.44836M20.543 3.66703H25.6677C26.3749 3.66703 27.0532 3.94798 27.5533 4.44808C28.0534 4.94818 28.3343 5.62645 28.3343 6.3337V8.44836M22.835 12.7857L13.8217 7.50636M24.005 16.395L12.5163 9.7617M22.6823 18.697L11.1943 12.063M28.853 10.2317L15.2223 2.36103C14.9545 2.20662 14.6364 2.16482 14.3377 2.24482C14.0391 2.32482 13.7844 2.52007 13.6297 2.7877L3.42968 20.4597C3.27505 20.7276 3.23314 21.0459 3.31315 21.3447C3.39316 21.6435 3.58854 21.8983 3.85634 22.053L17.4863 29.9237C17.7542 30.0783 18.0726 30.1202 18.3713 30.0402C18.6701 29.9602 18.9249 29.7648 19.0797 29.497L29.2803 11.825C29.435 11.5571 29.4769 11.2388 29.3969 10.94C29.3169 10.6412 29.1208 10.3865 28.853 10.2317Z" stroke="url(#paint0_linear_525_1241)" stroke-width="1.4" stroke-linecap="round" stroke-linejoin="round"/>
<defs>
<linearGradient id="paint0_linear_525_1241" x1="3.27344" y1="16.1425" x2="29.4366" y2="16.1425" gradientUnits="userSpaceOnUse">
<stop stop-color="#009BFB"/>
<stop offset="1" stop-color="#1D3FA0"/>
</linearGradient>
</defs>
</svg>
