<svg width="63" height="58" viewBox="0 0 63 58" fill="none" xmlns="http://www.w3.org/2000/svg">
<g filter="url(#filter0_d_525_141)">
<path d="M48.6665 30.7358L48.2718 31.1307C46.2561 33.1472 42.4269 33.6112 39.9876 32.1348L39.8217 32.0343L39.6436 31.9575C39.4249 31.8632 38.8769 31.5659 38.0483 31.01C36.5768 30.0225 34.9243 28.6648 33.1399 26.8797C31.3555 25.0946 29.9983 23.4415 29.0113 21.9693C28.4556 21.1404 28.1584 20.5921 28.0641 20.3734L27.9788 20.1754L27.8645 19.9927C26.3814 17.6224 26.8595 13.7737 28.8931 11.7393L29.3076 11.3246C29.7672 10.8648 30.3167 10.8961 30.7163 11.4016L32.9729 14.2555C33.5293 14.9592 33.4572 16.1843 32.8151 16.8268C31.4491 18.2093 31.4559 20.4365 32.8305 21.8117L38.206 27.1893C39.584 28.5679 41.8256 28.5687 43.2061 27.1877L43.3165 27.0772C43.9433 26.4502 45.1181 26.3921 45.8059 26.9559L48.5881 29.2362C49.1075 29.6618 49.1379 30.2642 48.6665 30.7358Z" fill="url(#paint0_linear_525_141)"/>
</g>
<circle cx="24" cy="34" r="12" transform="rotate(180 24 34)" stroke="url(#paint1_radial_525_141)" stroke-width="1.54044"/>
<ellipse cx="18.5" cy="39.5" rx="17.5" ry="17.5" transform="rotate(180 18.5 39.5)" stroke="url(#paint2_radial_525_141)" stroke-width="1.54044"/>
<defs>
<filter id="filter0_d_525_141" x="13.1361" y="0.216952" width="49.7278" height="49.7278" filterUnits="userSpaceOnUse" color-interpolation-filters="sRGB">
<feFlood flood-opacity="0" result="BackgroundImageFix"/>
<feColorMatrix in="SourceAlpha" type="matrix" values="0 0 0 0 0 0 0 0 0 0 0 0 0 0 0 0 0 0 127 0" result="hardAlpha"/>
<feOffset dy="3.08087"/>
<feGaussianBlur stdDeviation="6.93196"/>
<feColorMatrix type="matrix" values="0 0 0 0 0.230869 0 0 0 0 0.564159 0 0 0 0 1 0 0 0 1 0"/>
<feBlend mode="normal" in2="BackgroundImageFix" result="effect1_dropShadow_525_141"/>
<feBlend mode="normal" in="SourceGraphic" in2="effect1_dropShadow_525_141" result="shape"/>
</filter>
<linearGradient id="paint0_linear_525_141" x1="16" y1="22" x2="38" y2="44" gradientUnits="userSpaceOnUse">
<stop stop-color="#A4D7E9"/>
<stop offset="1" stop-color="#6B99CE"/>
</linearGradient>
<radialGradient id="paint1_radial_525_141" cx="0" cy="0" r="1" gradientUnits="userSpaceOnUse" gradientTransform="translate(36 22) rotate(57.6502) scale(20.8306)">
<stop stop-color="white"/>
<stop offset="0.621892" stop-color="white"/>
<stop offset="1" stop-color="white" stop-opacity="0.01"/>
</radialGradient>
<radialGradient id="paint2_radial_525_141" cx="0" cy="0" r="1" gradientUnits="userSpaceOnUse" gradientTransform="translate(36 22) rotate(57.6502) scale(30.378 30.378)">
<stop stop-color="white"/>
<stop offset="0.621892" stop-color="white"/>
<stop offset="1" stop-color="white" stop-opacity="0.01"/>
</radialGradient>
</defs>
</svg>
